<mxfile host="app.diagrams.net" modified="2024-03-21T13:44:13.603Z" agent="Mozilla/5.0 (Macintosh; Intel Mac OS X 10_15_7) AppleWebKit/537.36 (KHTML, like Gecko) Chrome/122.0.0.0 Safari/537.36" version="24.0.7" etag="XO_8-EOXHIt1FJu5TxKe" type="github">
  <diagram name="Page-1" id="XCW6-5kswVT85GLknC2Q">
    <mxGraphModel>
      <root>
        <mxCell id="0" />
        <mxCell id="1" parent="0" />
      </root>
    </mxGraphModel>
  </diagram>
</mxfile>
